<svg xmlns="http://www.w3.org/2000/svg">

    <symbol id="home-enabled" viewBox="0 0 48 48">
		<path d="M45.5 48H30.1c-.8 0-1.5-.7-1.5-1.5V34.2c0-2.6-2.1-4.6-4.6-4.6s-4.6 2.1-4.6 4.6v12.3c0 .8-.7 1.5-1.5 1.5H2.5c-.8 0-1.5-.7-1.5-1.5V23c0-.4.2-.8.4-1.1L22.9.4c.6-.6 1.6-.6 2.1 0l21.5 21.5c.3.3.4.7.4 1.1v23.5c.1.8-.6 1.5-1.4 1.5z"></path>
    </symbol>
    <symbol id="home" viewBox="0 0 48 48">
        <path d="M45.3 48H30c-.8 0-1.5-.7-1.5-1.5V34.2c0-2.6-2-4.6-4.6-4.6s-4.6 2-4.6 4.6v12.3c0 .8-.7 1.5-1.5 1.5H2.5c-.8 0-1.5-.7-1.5-1.5V23c0-.4.2-.8.4-1.1L22.9.4c.6-.6 1.5-.6 2.1 0l21.5 21.5c.4.4.6 1.1.3 1.6 0 .1-.1.1-.1.2v22.8c.1.8-.6 1.5-1.4 1.5zm-13.8-3h12.3V23.4L24 3.6l-20 20V45h12.3V34.2c0-4.3 3.3-7.6 7.6-7.6s7.6 3.3 7.6 7.6V45z"></path>
    </symbol>
    <symbol id="msg-enabled" viewBox="0 0 16 16">
        <path d="M0 8l4.9 1.4h0.1v-0.1l7.1-5.3-1.1 1.2-6.2 6.6 0.2 3.2 2.9-3.2 2.1 4.2 6-16z"></path>
    </symbol>
    <symbol id="msg" viewBox="0 0 16 16">
        <path d="M16 0l-16 8 4.7 1.6 0.3 5.4 2.5-2.8 2.5 3.8 6-16zM7.5 10.4l4.3-5.9-6.2 4.3-3-1 11.6-5.8-4.5 11.8-2.2-3.4z"></path>
    </symbol>
    <symbol id="explore-enabled" viewBox="0 0 510 510">
		<path d="M255,226.95c-15.3,0-28.05,12.75-28.05,28.05s12.75,28.05,28.05,28.05s28.05-12.75,28.05-28.05S270.3,226.95,255,226.95z
			 M255,0C114.75,0,0,114.75,0,255s114.75,255,255,255s255-114.75,255-255S395.25,0,255,0z M311.1,311.1L102,408l96.9-209.1L408,102
			L311.1,311.1z"/>
    </symbol>
    <symbol id="explore" viewBox="0 0 30 30">
    	<path d="M14,0C6.268,0,0,6.268,0,14s6.268,14,14,14s14-6.268,14-14S21.732,0,14,0z M14,26
			C7.373,26,2,20.627,2,14S7.373,2,14,2s12,5.373,12,12S20.627,26,14,26z"/>
		<path d="M6.222,21.777c0,0,8.838-3.183,10.606-4.949c1.768-1.768,4.949-10.606,4.949-10.606
			s-8.838,3.183-10.605,4.95S6.222,21.777,6.222,21.777z M12.586,12.586c0.781-0.781,2.047-0.781,2.828,0
			c0.781,0.781,0.781,2.047,0,2.828c-0.781,0.781-2.047,0.781-2.828,0C11.805,14.633,11.805,13.367,12.586,12.586z"/>
    </symbol>
    <symbol id="heart-enabled" viewBox="0 0 32 32">
		<path d="M14.708,15.847C14.252,14.864,14,13.742,14,12.5s0.252-2.489,0.708-3.659c0.455-1.171,1.114-2.266,1.929-3.205
			c0.814-0.938,1.784-1.723,2.86-2.271C20.574,2.814,21.758,2.5,23,2.5s2.426,0.252,3.503,0.707c1.077,0.456,2.046,1.115,2.86,1.929
			c0.813,0.814,1.474,1.784,1.929,2.861C31.749,9.073,32,10.258,32,11.5s-0.252,2.427-0.708,3.503
			c-0.455,1.077-1.114,2.047-1.929,2.861C28.55,18.678,17.077,29.044,16,29.5l0,0l0,0C14.923,29.044,3.45,18.678,2.636,17.864
			c-0.814-0.814-1.473-1.784-1.929-2.861C0.252,13.927,0,12.742,0,11.5s0.252-2.427,0.707-3.503C1.163,6.92,1.821,5.95,2.636,5.136
			C3.45,4.322,4.42,3.663,5.497,3.207C6.573,2.752,7.757,2.5,9,2.5s2.427,0.314,3.503,0.863c1.077,0.55,2.046,1.334,2.861,2.272
			c0.814,0.939,1.473,2.034,1.929,3.205C17.748,10.011,18,11.258,18,12.5s-0.252,2.364-0.707,3.347
			c-0.456,0.983-1.113,1.828-1.929,2.518"/>
    </symbol>
    <symbol id="heart" viewBox="0 0 333.701 333.701">
        <path d="M166.828,312.996L25.932,172.101c-34.576-34.576-34.576-90.837,0-125.42C42.681,29.933,64.95,20.704,88.639,20.704
            s45.965,9.229,62.713,25.977l15.476,15.476l15.476-15.476c16.748-16.748,39.024-25.977,62.713-25.977s45.952,9.229,62.707,25.977
            c16.755,16.748,25.977,39.024,25.977,62.713s-9.229,45.958-25.977,62.707L166.828,312.996z M88.639,33.558
            c-20.257,0-39.3,7.892-53.619,22.211c-29.563,29.57-29.563,77.675,0,107.245l131.814,131.808l131.802-131.808
            c14.325-14.325,22.211-33.362,22.211-53.619s-7.892-39.3-22.211-53.626c-14.325-14.325-33.362-22.211-53.619-22.211
            s-39.3,7.892-53.626,22.211l-24.563,24.563l-24.563-24.563C127.939,41.45,108.896,33.558,88.639,33.558z"/>
    </symbol>
    <symbol id="bookmark-enabled" viewBox="0 0 459 459">
	    <path d="M357,0H102C73.95,0,51,22.95,51,51v408l178.5-76.5L408,459V51C408,22.95,385.05,0,357,0z"/>
    </symbol>
    <symbol id="bookmark" viewBox="0 0 20 20">
        <path d="M2 2c0-1.1.9-2 2-2h12a2 2 0 0 1 2 2v18l-8-4-8 4V2zm2 0v15l6-3 6 3V2H4z"/>
    </symbol>
    <symbol id="comment" viewBox="0 0 511.626 511.627">
        <path d="M477.364,127.481c-22.839-28.072-53.864-50.248-93.072-66.522c-39.208-16.274-82.036-24.41-128.479-24.41
            c-46.442,0-89.269,8.136-128.478,24.41c-39.209,16.274-70.233,38.446-93.074,66.522C11.419,155.555,0,186.15,0,219.269
            c0,28.549,8.61,55.299,25.837,80.232c17.227,24.934,40.778,45.874,70.664,62.813c-2.096,7.611-4.57,14.842-7.426,21.7
            c-2.855,6.851-5.424,12.467-7.708,16.847c-2.286,4.374-5.376,9.23-9.281,14.555c-3.899,5.332-6.849,9.093-8.848,11.283
            c-1.997,2.19-5.28,5.801-9.851,10.848c-4.565,5.041-7.517,8.33-8.848,9.853c-0.193,0.097-0.953,0.948-2.285,2.574
            c-1.331,1.615-1.999,2.419-1.999,2.419l-1.713,2.57c-0.953,1.42-1.381,2.327-1.287,2.703c0.096,0.384-0.094,1.335-0.57,2.854
            c-0.477,1.526-0.428,2.669,0.142,3.429v0.287c0.762,3.234,2.283,5.853,4.567,7.851c2.284,1.992,4.858,2.991,7.71,2.991h1.429
            c12.375-1.526,23.223-3.613,32.548-6.279c49.87-12.751,93.649-35.782,131.334-69.094c14.274,1.523,28.074,2.283,41.396,2.283
            c46.442,0,89.271-8.135,128.479-24.414c39.208-16.276,70.233-38.444,93.072-66.517c22.843-28.072,34.263-58.67,34.263-91.789
            C511.626,186.154,500.207,155.555,477.364,127.481z M445.244,292.075c-19.896,22.456-46.733,40.303-80.517,53.529
            c-33.784,13.223-70.093,19.842-108.921,19.842c-11.609,0-23.98-0.76-37.113-2.286l-16.274-1.708l-12.277,10.852
            c-23.408,20.558-49.582,36.829-78.513,48.821c8.754-15.414,15.416-31.785,19.986-49.102l7.708-27.412l-24.838-14.27
            c-24.744-14.093-43.918-30.793-57.53-50.114c-13.61-19.315-20.412-39.638-20.412-60.954c0-26.077,9.945-50.343,29.834-72.803
            c19.895-22.458,46.729-40.303,80.515-53.531c33.786-13.229,70.089-19.849,108.92-19.849c38.828,0,75.13,6.617,108.914,19.845
            c33.783,13.229,60.62,31.073,80.517,53.531c19.89,22.46,29.834,46.727,29.834,72.802S465.133,269.615,445.244,292.075z"/>
    </symbol>
</svg>